# Blender 4.1.1
# www.blender.org
mtllib room_floor.mtl
o room_floor
v 7.000000 0.000000 -14.000000
v 7.000000 0.000000 0.000000
v -7.000000 0.000000 -14.000000
v -7.000000 0.000000 0.000000
v 5.000000 0.000000 0.000000
v 3.000000 0.000000 0.000000
v 1.000000 0.000000 0.000000
v -1.000000 0.000000 0.000000
v -3.000000 0.000000 0.000000
v -5.000000 0.000000 0.000000
v 7.000000 0.000000 -12.000000
v 7.000000 0.000000 -10.000000
v 7.000000 0.000000 -8.000000
v 7.000000 0.000000 -6.000000
v 7.000000 0.000000 -4.000000
v 7.000000 0.000000 -2.000000
v -7.000000 0.000000 -2.000000
v -7.000000 0.000000 -4.000000
v -7.000000 0.000000 -6.000000
v -7.000000 0.000000 -8.000000
v -7.000000 0.000000 -10.000000
v -7.000000 0.000000 -12.000000
v -5.000000 0.000000 -14.000000
v -3.000000 0.000000 -14.000000
v -1.000000 0.000000 -14.000000
v 1.200000 0.000000 -14.000000
v 3.000000 0.000000 -14.000000
v 5.000000 0.000000 -14.000000
v 5.000000 0.000000 -12.000000
v 5.000000 0.000000 -10.000000
v 5.000000 0.000000 -8.000000
v 5.000000 0.000000 -6.000000
v 5.000000 0.000000 -4.000000
v 5.000000 0.000000 -2.000000
v 3.000000 0.000000 -12.000000
v 3.000000 0.000000 -10.000000
v 3.000000 0.000000 -8.000000
v 3.000000 0.000000 -6.000000
v 3.000000 0.000000 -4.000000
v 3.000000 0.000000 -2.000000
v 1.000000 0.000000 -12.000000
v 1.000000 0.000000 -10.000000
v 1.000000 0.000000 -8.000000
v 1.000000 0.000000 -6.000000
v 1.000000 0.000000 -4.000000
v 1.000000 0.000000 -2.000000
v -1.000000 0.000000 -12.000000
v -1.000000 0.000000 -10.000000
v -1.000000 0.000000 -8.000000
v -1.000000 0.000000 -6.000000
v -1.000000 0.000000 -4.000000
v -1.000000 0.000000 -2.000000
v -3.000000 0.000000 -12.000000
v -3.000000 0.000000 -10.000000
v -3.000000 0.000000 -8.000000
v -3.000000 0.000000 -6.000000
v -3.000000 0.000000 -4.000000
v -3.000000 0.000000 -2.000000
v -5.000000 0.000000 -12.000000
v -5.000000 0.000000 -10.000000
v -5.000000 0.000000 -8.000000
v -5.000000 0.000000 -6.000000
v -5.000000 0.000000 -4.000000
v -5.000000 0.000000 -2.000000
v -6.000000 0.000000 0.000000
v 7.000000 0.000000 -1.000000
v -7.000000 0.000000 -13.000000
v 6.000000 0.000000 -14.000000
v 6.000000 0.000000 0.000000
v 4.000000 0.000000 0.000000
v 2.000000 0.000000 0.000000
v 0.000000 0.000000 0.000000
v -2.000000 0.000000 0.000000
v -4.000000 0.000000 0.000000
v 7.000000 0.000000 -13.000000
v 7.000000 0.000000 -11.000000
v 7.000000 0.000000 -9.000000
v 7.000000 0.000000 -7.000000
v 7.000000 0.000000 -5.000000
v 7.000000 0.000000 -3.000000
v -7.000000 0.000000 -1.000000
v -7.000000 0.000000 -3.000000
v -7.000000 0.000000 -5.000000
v -7.000000 0.000000 -7.000000
v -7.000000 0.000000 -9.000000
v -7.000000 0.000000 -11.000000
v -6.000000 0.000000 -14.000000
v -4.000000 0.000000 -14.000000
v -2.000000 0.000000 -14.000000
v 0.000000 0.000000 -14.000000
v 2.000000 0.000000 -14.000000
v 4.000000 0.000000 -14.000000
v 5.000000 0.000000 -1.000000
v 5.000000 0.000000 -13.000000
v 5.000000 0.000000 -11.000000
v 5.000000 0.000000 -9.000000
v 5.000000 0.000000 -7.000000
v 5.000000 0.000000 -5.000000
v 5.000000 0.000000 -3.000000
v 3.000000 0.000000 -1.000000
v 3.000000 0.000000 -13.000000
v 3.000000 0.000000 -11.000000
v 3.000000 0.000000 -9.000000
v 3.000000 0.000000 -7.000000
v 3.000000 0.000000 -5.000000
v 3.000000 0.000000 -3.000000
v 1.000000 0.000000 -1.000000
v 1.000000 0.000000 -13.000000
v 1.000000 0.000000 -11.000000
v 1.000000 0.000000 -9.000000
v 1.000000 0.000000 -7.000000
v 1.000000 0.000000 -5.000000
v 1.000000 0.000000 -3.000000
v -1.000000 0.000000 -1.000000
v -1.000000 0.000000 -13.000000
v -1.000000 0.000000 -11.000000
v -1.000000 0.000000 -9.000000
v -1.000000 0.000000 -7.000000
v -1.000000 0.000000 -5.000000
v -1.000000 0.000000 -3.000000
v -3.000000 0.000000 -1.000000
v -3.000000 0.000000 -13.000000
v -3.000000 0.000000 -11.000000
v -3.000000 0.000000 -9.000000
v -3.000000 0.000000 -7.000000
v -3.000000 0.000000 -5.000000
v -3.000000 0.000000 -3.000000
v -5.000000 0.000000 -1.000000
v -5.000000 0.000000 -13.000000
v -5.000000 0.000000 -11.000000
v -5.000000 0.000000 -9.000000
v -5.000000 0.000000 -7.000000
v -5.000000 0.000000 -5.000000
v -5.000000 0.000000 -3.000000
v 6.000000 0.000000 -12.000000
v 6.000000 0.000000 -10.000000
v 6.000000 0.000000 -8.000000
v 6.000000 0.000000 -6.000000
v 6.000000 0.000000 -4.000000
v 6.000000 0.000000 -2.000000
v 4.000000 0.000000 -12.000000
v 4.000000 0.000000 -10.000000
v 4.000000 0.000000 -8.000000
v 4.000000 0.000000 -6.000000
v 4.000000 0.000000 -4.000000
v 4.000000 0.000000 -2.000000
v 2.000000 0.000000 -12.000000
v 2.000000 0.000000 -10.000000
v 2.000000 0.000000 -8.000000
v 2.000000 0.000000 -6.000000
v 2.000000 0.000000 -4.000000
v 2.000000 0.000000 -2.000000
v 0.000000 0.000000 -12.000000
v 0.000000 0.000000 -10.000000
v 0.000000 0.000000 -8.000000
v 0.000000 0.000000 -6.000000
v 0.000000 0.000000 -4.000000
v 0.000000 0.000000 -2.000000
v -2.000000 0.000000 -12.000000
v -2.000000 0.000000 -10.000000
v -2.000000 0.000000 -8.000000
v -2.000000 0.000000 -6.000000
v -2.000000 0.000000 -4.000000
v -2.000000 0.000000 -2.000000
v -4.000000 0.000000 -12.000000
v -4.000000 0.000000 -10.000000
v -4.000000 0.000000 -8.000000
v -4.000000 0.000000 -6.000000
v -4.000000 0.000000 -4.000000
v -4.000000 0.000000 -2.000000
v -6.000000 0.000000 -12.000000
v -6.000000 0.000000 -10.000000
v -6.000000 0.000000 -8.000000
v -6.000000 0.000000 -6.000000
v -6.000000 0.000000 -4.000000
v -6.000000 0.000000 -2.000000
v -6.000000 0.000000 -3.000000
v -6.000000 0.000000 -5.000000
v -6.000000 0.000000 -7.000000
v -6.000000 0.000000 -9.000000
v -6.000000 0.000000 -11.000000
v -6.000000 0.000000 -13.000000
v -4.000000 0.000000 -3.000000
v -4.000000 0.000000 -5.000000
v -4.000000 0.000000 -7.000000
v -4.000000 0.000000 -9.000000
v -4.000000 0.000000 -11.000000
v -4.000000 0.000000 -13.000000
v -2.000000 0.000000 -3.000000
v -2.000000 0.000000 -5.000000
v -2.000000 0.000000 -7.000000
v -2.000000 0.000000 -9.000000
v -2.000000 0.000000 -11.000000
v -2.000000 0.000000 -13.000000
v 0.000000 0.000000 -3.000000
v 0.000000 0.000000 -5.000000
v 0.000000 0.000000 -7.000000
v 0.000000 0.000000 -9.000000
v 0.000000 0.000000 -11.000000
v 0.000000 0.000000 -13.000000
v 2.000000 0.000000 -3.000000
v 2.000000 0.000000 -5.000000
v 2.000000 0.000000 -7.000000
v 2.000000 0.000000 -9.000000
v 2.000000 0.000000 -11.000000
v 2.000000 0.000000 -13.000000
v 4.000000 0.000000 -3.000000
v 4.000000 0.000000 -5.000000
v 4.000000 0.000000 -7.000000
v 4.000000 0.000000 -9.000000
v 4.000000 0.000000 -11.000000
v 4.000000 0.000000 -13.000000
v 6.000000 0.000000 -3.000000
v 6.000000 0.000000 -5.000000
v 6.000000 0.000000 -7.000000
v 6.000000 0.000000 -9.000000
v 6.000000 0.000000 -11.000000
v 6.000000 0.000000 -13.000000
v -4.000000 0.000000 -1.000000
v -2.000000 0.000000 -1.000000
v 0.000000 0.000000 -1.000000
v 2.000000 0.000000 -1.000000
v 4.000000 0.000000 -1.000000
v 6.000000 0.000000 -1.000000
v -6.000000 0.000000 -1.000000
vn -0.0000 1.0000 -0.0000
vt -4.654904 -4.640465
vt -5.512047 -5.497607
vt -4.654904 -5.497607
vt 5.630810 -4.640465
vt 4.773667 -5.497607
vt 5.630810 -5.497607
vt 3.916524 -4.640465
vt 3.059381 -5.497607
vt 3.916524 -5.497607
vt 2.202239 -4.640465
vt 1.345095 -5.497607
vt 2.202239 -5.497607
vt 0.487953 -4.640465
vt -0.369190 -5.497607
vt 0.487953 -5.497607
vt -1.226333 -4.640465
vt -2.083476 -5.497607
vt -1.226333 -5.497607
vt -2.940619 -4.640465
vt -3.797761 -5.497607
vt -2.940619 -5.497607
vt 5.630810 5.645249
vt 4.773667 4.788107
vt 5.630810 4.788107
vt 5.630810 3.930965
vt 4.773667 3.073822
vt 5.630810 3.073822
vt 5.630810 2.216678
vt 4.773667 1.359536
vt 5.630810 1.359536
vt 5.630810 0.502393
vt 4.773667 -0.354750
vt 5.630810 -0.354750
vt 5.630810 -1.211893
vt 4.773667 -2.069036
vt 5.630810 -2.069036
vt 5.630810 -2.926178
vt 4.773667 -3.783321
vt 5.630810 -3.783321
vt 3.916524 5.645249
vt 3.059381 4.788107
vt 3.916524 4.788107
vt 3.916524 3.930965
vt 3.059381 3.073822
vt 3.916524 3.073822
vt 3.916524 2.216678
vt 3.059381 1.359536
vt 3.916524 1.359536
vt 3.916524 0.502393
vt 3.059381 -0.354750
vt 3.916524 -0.354750
vt 3.916524 -1.211893
vt 3.059381 -2.069036
vt 3.916524 -2.069036
vt 3.916524 -2.926178
vt 3.059381 -3.783321
vt 3.916524 -3.783321
vt 2.202239 5.645249
vt 1.345095 4.788107
vt 2.202239 4.788107
vt 2.202239 3.930965
vt 1.345095 3.073822
vt 2.202239 3.073822
vt 2.202239 2.216678
vt 1.345095 1.359536
vt 2.202239 1.359536
vt 2.202239 0.502393
vt 1.345095 -0.354750
vt 2.202239 -0.354750
vt 2.202239 -1.211893
vt 1.345095 -2.069036
vt 2.202239 -2.069036
vt 2.202239 -2.926178
vt 1.345095 -3.783321
vt 2.202239 -3.783321
vt 0.487953 5.645249
vt -0.369190 4.788107
vt 0.487953 4.788107
vt 0.487953 3.930965
vt -0.369190 3.073822
vt 0.487953 3.073822
vt 0.487953 2.216678
vt -0.369190 1.359536
vt 0.487953 1.359536
vt 0.487953 0.502393
vt -0.369190 -0.354750
vt 0.487953 -0.354750
vt 0.487953 -1.211893
vt -0.369190 -2.069036
vt 0.487953 -2.069036
vt 0.487953 -2.926178
vt -0.369190 -3.783321
vt 0.487953 -3.783321
vt -1.226333 5.645249
vt -2.083476 4.788107
vt -1.226333 4.788107
vt -1.226333 3.930965
vt -2.083476 3.073822
vt -1.226333 3.073822
vt -1.226333 2.216678
vt -2.083476 1.359536
vt -1.226333 1.359536
vt -1.226333 0.502393
vt -2.083476 -0.354750
vt -1.226333 -0.354750
vt -1.226333 -1.211893
vt -2.083476 -2.069036
vt -1.226333 -2.069036
vt -1.226333 -2.926178
vt -2.083476 -3.783321
vt -1.226333 -3.783321
vt -2.940619 5.645249
vt -3.797761 4.788107
vt -2.940619 4.788107
vt -2.940619 3.930965
vt -3.797761 3.073822
vt -2.940619 3.073822
vt -2.940619 2.216678
vt -3.797761 1.359536
vt -2.940619 1.359536
vt -2.940619 0.502393
vt -3.797761 -0.354750
vt -2.940619 -0.354750
vt -2.940619 -1.211893
vt -3.797761 -2.069036
vt -2.940619 -2.069036
vt -2.940619 -2.926178
vt -3.797761 -3.783321
vt -2.940619 -3.783321
vt -4.654904 5.645249
vt -5.512047 4.788107
vt -4.654904 4.788107
vt -4.654904 3.930965
vt -5.512047 3.073822
vt -4.654904 3.073822
vt -4.654904 2.216678
vt -5.512047 1.359536
vt -4.654904 1.359536
vt -4.654904 0.502393
vt -5.512047 -0.354750
vt -4.654904 -0.354750
vt -4.654904 -1.211893
vt -5.512047 -2.069036
vt -4.654904 -2.069036
vt -4.654904 -2.926178
vt -5.512047 -3.783321
vt -4.654904 -3.783321
vt -3.797761 -2.926178
vt -5.512047 -2.926178
vt -3.797761 -1.211893
vt -5.512047 -1.211893
vt -3.797761 0.502393
vt -5.512047 0.502393
vt -3.797761 2.216678
vt -5.512047 2.216678
vt -3.797761 3.930965
vt -5.512047 3.930965
vt -3.797761 5.645249
vt -3.797761 6.502392
vt -4.654904 6.502392
vt -5.512047 5.645249
vt -2.083476 -2.926178
vt -2.083476 -1.211893
vt -2.083476 0.502393
vt -2.083476 2.216678
vt -2.083476 3.930965
vt -2.083476 5.645249
vt -2.083476 6.502392
vt -2.940619 6.502392
vt -0.369190 -2.926178
vt -0.369190 -1.211893
vt -0.369190 0.502393
vt -0.369190 2.216678
vt -0.369190 3.930965
vt -0.369190 5.645249
vt -0.369190 6.502392
vt -1.226333 6.502392
vt 1.345095 -2.926178
vt 1.345095 -1.211893
vt 1.345095 0.502393
vt 1.345095 2.216678
vt 1.345095 3.930965
vt 1.345095 5.645249
vt 1.516524 6.502392
vt 0.487953 6.502392
vt 3.059381 -2.926178
vt 3.059381 -1.211893
vt 3.059381 0.502393
vt 3.059381 2.216678
vt 3.059381 3.930965
vt 3.059381 5.645249
vt 3.059381 6.502392
vt 2.202239 6.502392
vt 4.773667 -2.926178
vt 4.773667 -1.211893
vt 4.773667 0.502393
vt 4.773667 2.216678
vt 4.773667 3.930965
vt 4.773667 5.645249
vt 4.773667 6.502392
vt 3.916524 6.502392
vt 6.487953 -2.926178
vt 6.487953 -3.783321
vt 6.487953 -2.069036
vt 6.487953 -1.211893
vt 6.487953 -0.354750
vt 6.487953 0.502393
vt 6.487953 1.359536
vt 6.487953 2.216678
vt 6.487953 3.073822
vt 6.487953 3.930965
vt 6.487953 4.788107
vt 6.487953 5.645249
vt 6.487953 6.502392
vt 5.630810 6.502392
vt -2.083476 -4.640465
vt -3.797761 -4.640465
vt -0.369190 -4.640465
vt 1.345095 -4.640465
vt 3.059381 -4.640465
vt 4.773667 -4.640465
vt 6.487953 -4.640465
vt 6.487953 -5.497607
vt -5.512047 -4.640465
vt -5.512047 6.502392
vt 1.516524 6.502392
s 0
usemtl floor
f 225/1/1 4/2/1 65/3/1
f 224/4/1 5/5/1 69/6/1
f 223/7/1 6/8/1 70/9/1
f 222/10/1 7/11/1 71/12/1
f 221/13/1 8/14/1 72/15/1
f 220/16/1 9/17/1 73/18/1
f 219/19/1 10/20/1 74/21/1
f 218/22/1 29/23/1 135/24/1
f 217/25/1 30/26/1 136/27/1
f 216/28/1 31/29/1 137/30/1
f 215/31/1 32/32/1 138/33/1
f 214/34/1 33/35/1 139/36/1
f 213/37/1 34/38/1 140/39/1
f 212/40/1 35/41/1 141/42/1
f 211/43/1 36/44/1 142/45/1
f 210/46/1 37/47/1 143/48/1
f 209/49/1 38/50/1 144/51/1
f 208/52/1 39/53/1 145/54/1
f 207/55/1 40/56/1 146/57/1
f 206/58/1 41/59/1 147/60/1
f 205/61/1 42/62/1 148/63/1
f 204/64/1 43/65/1 149/66/1
f 203/67/1 44/68/1 150/69/1
f 202/70/1 45/71/1 151/72/1
f 201/73/1 46/74/1 152/75/1
f 200/76/1 47/77/1 153/78/1
f 199/79/1 48/80/1 154/81/1
f 198/82/1 49/83/1 155/84/1
f 197/85/1 50/86/1 156/87/1
f 196/88/1 51/89/1 157/90/1
f 195/91/1 52/92/1 158/93/1
f 194/94/1 53/95/1 159/96/1
f 193/97/1 54/98/1 160/99/1
f 192/100/1 55/101/1 161/102/1
f 191/103/1 56/104/1 162/105/1
f 190/106/1 57/107/1 163/108/1
f 189/109/1 58/110/1 164/111/1
f 188/112/1 59/113/1 165/114/1
f 187/115/1 60/116/1 166/117/1
f 186/118/1 61/119/1 167/120/1
f 185/121/1 62/122/1 168/123/1
f 184/124/1 63/125/1 169/126/1
f 183/127/1 64/128/1 170/129/1
f 182/130/1 22/131/1 171/132/1
f 181/133/1 21/134/1 172/135/1
f 180/136/1 20/137/1 173/138/1
f 179/139/1 19/140/1 174/141/1
f 178/142/1 18/143/1 175/144/1
f 177/145/1 17/146/1 176/147/1
f 134/148/1 176/147/1 64/128/1
f 63/125/1 177/145/1 134/148/1
f 175/144/1 82/149/1 177/145/1
f 133/150/1 175/144/1 63/125/1
f 62/122/1 178/142/1 133/150/1
f 174/141/1 83/151/1 178/142/1
f 132/152/1 174/141/1 62/122/1
f 61/119/1 179/139/1 132/152/1
f 173/138/1 84/153/1 179/139/1
f 131/154/1 173/138/1 61/119/1
f 60/116/1 180/136/1 131/154/1
f 172/135/1 85/155/1 180/136/1
f 130/156/1 172/135/1 60/116/1
f 59/113/1 181/133/1 130/156/1
f 171/132/1 86/157/1 181/133/1
f 129/158/1 171/132/1 59/113/1
f 23/159/1 182/130/1 129/158/1
f 87/160/1 67/161/1 182/130/1
f 127/162/1 170/129/1 58/110/1
f 57/107/1 183/127/1 127/162/1
f 169/126/1 134/148/1 183/127/1
f 126/163/1 169/126/1 57/107/1
f 56/104/1 184/124/1 126/163/1
f 168/123/1 133/150/1 184/124/1
f 125/164/1 168/123/1 56/104/1
f 55/101/1 185/121/1 125/164/1
f 167/120/1 132/152/1 185/121/1
f 124/165/1 167/120/1 55/101/1
f 54/98/1 186/118/1 124/165/1
f 166/117/1 131/154/1 186/118/1
f 123/166/1 166/117/1 54/98/1
f 53/95/1 187/115/1 123/166/1
f 165/114/1 130/156/1 187/115/1
f 122/167/1 165/114/1 53/95/1
f 24/168/1 188/112/1 122/167/1
f 88/169/1 129/158/1 188/112/1
f 120/170/1 164/111/1 52/92/1
f 51/89/1 189/109/1 120/170/1
f 163/108/1 127/162/1 189/109/1
f 119/171/1 163/108/1 51/89/1
f 50/86/1 190/106/1 119/171/1
f 162/105/1 126/163/1 190/106/1
f 118/172/1 162/105/1 50/86/1
f 49/83/1 191/103/1 118/172/1
f 161/102/1 125/164/1 191/103/1
f 117/173/1 161/102/1 49/83/1
f 48/80/1 192/100/1 117/173/1
f 160/99/1 124/165/1 192/100/1
f 116/174/1 160/99/1 48/80/1
f 47/77/1 193/97/1 116/174/1
f 159/96/1 123/166/1 193/97/1
f 115/175/1 159/96/1 47/77/1
f 25/176/1 194/94/1 115/175/1
f 89/177/1 122/167/1 194/94/1
f 113/178/1 158/93/1 46/74/1
f 45/71/1 195/91/1 113/178/1
f 157/90/1 120/170/1 195/91/1
f 112/179/1 157/90/1 45/71/1
f 44/68/1 196/88/1 112/179/1
f 156/87/1 119/171/1 196/88/1
f 111/180/1 156/87/1 44/68/1
f 43/65/1 197/85/1 111/180/1
f 155/84/1 118/172/1 197/85/1
f 110/181/1 155/84/1 43/65/1
f 42/62/1 198/82/1 110/181/1
f 154/81/1 117/173/1 198/82/1
f 109/182/1 154/81/1 42/62/1
f 41/59/1 199/79/1 109/182/1
f 153/78/1 116/174/1 199/79/1
f 108/183/1 153/78/1 41/59/1
f 26/184/1 200/76/1 108/183/1
f 90/185/1 115/175/1 200/76/1
f 106/186/1 152/75/1 40/56/1
f 39/53/1 201/73/1 106/186/1
f 151/72/1 113/178/1 201/73/1
f 105/187/1 151/72/1 39/53/1
f 38/50/1 202/70/1 105/187/1
f 150/69/1 112/179/1 202/70/1
f 104/188/1 150/69/1 38/50/1
f 37/47/1 203/67/1 104/188/1
f 149/66/1 111/180/1 203/67/1
f 103/189/1 149/66/1 37/47/1
f 36/44/1 204/64/1 103/189/1
f 148/63/1 110/181/1 204/64/1
f 102/190/1 148/63/1 36/44/1
f 35/41/1 205/61/1 102/190/1
f 147/60/1 109/182/1 205/61/1
f 101/191/1 147/60/1 35/41/1
f 27/192/1 206/58/1 101/191/1
f 91/193/1 108/183/1 206/58/1
f 99/194/1 146/57/1 34/38/1
f 33/35/1 207/55/1 99/194/1
f 145/54/1 106/186/1 207/55/1
f 98/195/1 145/54/1 33/35/1
f 32/32/1 208/52/1 98/195/1
f 144/51/1 105/187/1 208/52/1
f 97/196/1 144/51/1 32/32/1
f 31/29/1 209/49/1 97/196/1
f 143/48/1 104/188/1 209/49/1
f 96/197/1 143/48/1 31/29/1
f 30/26/1 210/46/1 96/197/1
f 142/45/1 103/189/1 210/46/1
f 95/198/1 142/45/1 30/26/1
f 29/23/1 211/43/1 95/198/1
f 141/42/1 102/190/1 211/43/1
f 94/199/1 141/42/1 29/23/1
f 28/200/1 212/40/1 94/199/1
f 92/201/1 101/191/1 212/40/1
f 80/202/1 140/39/1 16/203/1
f 15/204/1 213/37/1 80/202/1
f 139/36/1 99/194/1 213/37/1
f 79/205/1 139/36/1 15/204/1
f 14/206/1 214/34/1 79/205/1
f 138/33/1 98/195/1 214/34/1
f 78/207/1 138/33/1 14/206/1
f 13/208/1 215/31/1 78/207/1
f 137/30/1 97/196/1 215/31/1
f 77/209/1 137/30/1 13/208/1
f 12/210/1 216/28/1 77/209/1
f 136/27/1 96/197/1 216/28/1
f 76/211/1 136/27/1 12/210/1
f 11/212/1 217/25/1 76/211/1
f 135/24/1 95/198/1 217/25/1
f 75/213/1 135/24/1 11/212/1
f 1/214/1 218/22/1 75/213/1
f 68/215/1 94/199/1 218/22/1
f 121/216/1 74/21/1 9/17/1
f 58/110/1 219/19/1 121/216/1
f 170/129/1 128/217/1 219/19/1
f 114/218/1 73/18/1 8/14/1
f 52/92/1 220/16/1 114/218/1
f 164/111/1 121/216/1 220/16/1
f 107/219/1 72/15/1 7/11/1
f 46/74/1 221/13/1 107/219/1
f 158/93/1 114/218/1 221/13/1
f 100/220/1 71/12/1 6/8/1
f 40/56/1 222/10/1 100/220/1
f 152/75/1 107/219/1 222/10/1
f 93/221/1 70/9/1 5/5/1
f 34/38/1 223/7/1 93/221/1
f 146/57/1 100/220/1 223/7/1
f 66/222/1 69/6/1 2/223/1
f 16/203/1 224/4/1 66/222/1
f 140/39/1 93/221/1 224/4/1
f 128/217/1 65/3/1 10/20/1
f 64/128/1 225/1/1 128/217/1
f 176/147/1 81/224/1 225/1/1
f 225/1/1 81/224/1 4/2/1
f 224/4/1 93/221/1 5/5/1
f 223/7/1 100/220/1 6/8/1
f 222/10/1 107/219/1 7/11/1
f 221/13/1 114/218/1 8/14/1
f 220/16/1 121/216/1 9/17/1
f 219/19/1 128/217/1 10/20/1
f 218/22/1 94/199/1 29/23/1
f 217/25/1 95/198/1 30/26/1
f 216/28/1 96/197/1 31/29/1
f 215/31/1 97/196/1 32/32/1
f 214/34/1 98/195/1 33/35/1
f 213/37/1 99/194/1 34/38/1
f 212/40/1 101/191/1 35/41/1
f 211/43/1 102/190/1 36/44/1
f 210/46/1 103/189/1 37/47/1
f 209/49/1 104/188/1 38/50/1
f 208/52/1 105/187/1 39/53/1
f 207/55/1 106/186/1 40/56/1
f 206/58/1 108/183/1 41/59/1
f 205/61/1 109/182/1 42/62/1
f 204/64/1 110/181/1 43/65/1
f 203/67/1 111/180/1 44/68/1
f 202/70/1 112/179/1 45/71/1
f 201/73/1 113/178/1 46/74/1
f 200/76/1 115/175/1 47/77/1
f 199/79/1 116/174/1 48/80/1
f 198/82/1 117/173/1 49/83/1
f 197/85/1 118/172/1 50/86/1
f 196/88/1 119/171/1 51/89/1
f 195/91/1 120/170/1 52/92/1
f 194/94/1 122/167/1 53/95/1
f 193/97/1 123/166/1 54/98/1
f 192/100/1 124/165/1 55/101/1
f 191/103/1 125/164/1 56/104/1
f 190/106/1 126/163/1 57/107/1
f 189/109/1 127/162/1 58/110/1
f 188/112/1 129/158/1 59/113/1
f 187/115/1 130/156/1 60/116/1
f 186/118/1 131/154/1 61/119/1
f 185/121/1 132/152/1 62/122/1
f 184/124/1 133/150/1 63/125/1
f 183/127/1 134/148/1 64/128/1
f 182/130/1 67/161/1 22/131/1
f 181/133/1 86/157/1 21/134/1
f 180/136/1 85/155/1 20/137/1
f 179/139/1 84/153/1 19/140/1
f 178/142/1 83/151/1 18/143/1
f 177/145/1 82/149/1 17/146/1
f 134/148/1 177/145/1 176/147/1
f 63/125/1 175/144/1 177/145/1
f 175/144/1 18/143/1 82/149/1
f 133/150/1 178/142/1 175/144/1
f 62/122/1 174/141/1 178/142/1
f 174/141/1 19/140/1 83/151/1
f 132/152/1 179/139/1 174/141/1
f 61/119/1 173/138/1 179/139/1
f 173/138/1 20/137/1 84/153/1
f 131/154/1 180/136/1 173/138/1
f 60/116/1 172/135/1 180/136/1
f 172/135/1 21/134/1 85/155/1
f 130/156/1 181/133/1 172/135/1
f 59/113/1 171/132/1 181/133/1
f 171/132/1 22/131/1 86/157/1
f 129/158/1 182/130/1 171/132/1
f 23/159/1 87/160/1 182/130/1
f 87/160/1 3/225/1 67/161/1
f 127/162/1 183/127/1 170/129/1
f 57/107/1 169/126/1 183/127/1
f 169/126/1 63/125/1 134/148/1
f 126/163/1 184/124/1 169/126/1
f 56/104/1 168/123/1 184/124/1
f 168/123/1 62/122/1 133/150/1
f 125/164/1 185/121/1 168/123/1
f 55/101/1 167/120/1 185/121/1
f 167/120/1 61/119/1 132/152/1
f 124/165/1 186/118/1 167/120/1
f 54/98/1 166/117/1 186/118/1
f 166/117/1 60/116/1 131/154/1
f 123/166/1 187/115/1 166/117/1
f 53/95/1 165/114/1 187/115/1
f 165/114/1 59/113/1 130/156/1
f 122/167/1 188/112/1 165/114/1
f 24/168/1 88/169/1 188/112/1
f 88/169/1 23/159/1 129/158/1
f 120/170/1 189/109/1 164/111/1
f 51/89/1 163/108/1 189/109/1
f 163/108/1 57/107/1 127/162/1
f 119/171/1 190/106/1 163/108/1
f 50/86/1 162/105/1 190/106/1
f 162/105/1 56/104/1 126/163/1
f 118/172/1 191/103/1 162/105/1
f 49/83/1 161/102/1 191/103/1
f 161/102/1 55/101/1 125/164/1
f 117/173/1 192/100/1 161/102/1
f 48/80/1 160/99/1 192/100/1
f 160/99/1 54/98/1 124/165/1
f 116/174/1 193/97/1 160/99/1
f 47/77/1 159/96/1 193/97/1
f 159/96/1 53/95/1 123/166/1
f 115/175/1 194/94/1 159/96/1
f 25/176/1 89/177/1 194/94/1
f 89/177/1 24/168/1 122/167/1
f 113/178/1 195/91/1 158/93/1
f 45/71/1 157/90/1 195/91/1
f 157/90/1 51/89/1 120/170/1
f 112/179/1 196/88/1 157/90/1
f 44/68/1 156/87/1 196/88/1
f 156/87/1 50/86/1 119/171/1
f 111/180/1 197/85/1 156/87/1
f 43/65/1 155/84/1 197/85/1
f 155/84/1 49/83/1 118/172/1
f 110/181/1 198/82/1 155/84/1
f 42/62/1 154/81/1 198/82/1
f 154/81/1 48/80/1 117/173/1
f 109/182/1 199/79/1 154/81/1
f 41/59/1 153/78/1 199/79/1
f 153/78/1 47/77/1 116/174/1
f 108/183/1 200/76/1 153/78/1
f 26/184/1 90/185/1 200/76/1
f 90/185/1 25/176/1 115/175/1
f 106/186/1 201/73/1 152/75/1
f 39/53/1 151/72/1 201/73/1
f 151/72/1 45/71/1 113/178/1
f 105/187/1 202/70/1 151/72/1
f 38/50/1 150/69/1 202/70/1
f 150/69/1 44/68/1 112/179/1
f 104/188/1 203/67/1 150/69/1
f 37/47/1 149/66/1 203/67/1
f 149/66/1 43/65/1 111/180/1
f 103/189/1 204/64/1 149/66/1
f 36/44/1 148/63/1 204/64/1
f 148/63/1 42/62/1 110/181/1
f 102/190/1 205/61/1 148/63/1
f 35/41/1 147/60/1 205/61/1
f 147/60/1 41/59/1 109/182/1
f 101/191/1 206/58/1 147/60/1
f 27/192/1 91/193/1 206/58/1
f 91/193/1 26/226/1 108/183/1
f 99/194/1 207/55/1 146/57/1
f 33/35/1 145/54/1 207/55/1
f 145/54/1 39/53/1 106/186/1
f 98/195/1 208/52/1 145/54/1
f 32/32/1 144/51/1 208/52/1
f 144/51/1 38/50/1 105/187/1
f 97/196/1 209/49/1 144/51/1
f 31/29/1 143/48/1 209/49/1
f 143/48/1 37/47/1 104/188/1
f 96/197/1 210/46/1 143/48/1
f 30/26/1 142/45/1 210/46/1
f 142/45/1 36/44/1 103/189/1
f 95/198/1 211/43/1 142/45/1
f 29/23/1 141/42/1 211/43/1
f 141/42/1 35/41/1 102/190/1
f 94/199/1 212/40/1 141/42/1
f 28/200/1 92/201/1 212/40/1
f 92/201/1 27/192/1 101/191/1
f 80/202/1 213/37/1 140/39/1
f 15/204/1 139/36/1 213/37/1
f 139/36/1 33/35/1 99/194/1
f 79/205/1 214/34/1 139/36/1
f 14/206/1 138/33/1 214/34/1
f 138/33/1 32/32/1 98/195/1
f 78/207/1 215/31/1 138/33/1
f 13/208/1 137/30/1 215/31/1
f 137/30/1 31/29/1 97/196/1
f 77/209/1 216/28/1 137/30/1
f 12/210/1 136/27/1 216/28/1
f 136/27/1 30/26/1 96/197/1
f 76/211/1 217/25/1 136/27/1
f 11/212/1 135/24/1 217/25/1
f 135/24/1 29/23/1 95/198/1
f 75/213/1 218/22/1 135/24/1
f 1/214/1 68/215/1 218/22/1
f 68/215/1 28/200/1 94/199/1
f 121/216/1 219/19/1 74/21/1
f 58/110/1 170/129/1 219/19/1
f 170/129/1 64/128/1 128/217/1
f 114/218/1 220/16/1 73/18/1
f 52/92/1 164/111/1 220/16/1
f 164/111/1 58/110/1 121/216/1
f 107/219/1 221/13/1 72/15/1
f 46/74/1 158/93/1 221/13/1
f 158/93/1 52/92/1 114/218/1
f 100/220/1 222/10/1 71/12/1
f 40/56/1 152/75/1 222/10/1
f 152/75/1 46/74/1 107/219/1
f 93/221/1 223/7/1 70/9/1
f 34/38/1 146/57/1 223/7/1
f 146/57/1 40/56/1 100/220/1
f 66/222/1 224/4/1 69/6/1
f 16/203/1 140/39/1 224/4/1
f 140/39/1 34/38/1 93/221/1
f 128/217/1 225/1/1 65/3/1
f 64/128/1 176/147/1 225/1/1
f 176/147/1 17/146/1 81/224/1
